<svg width="88" height="78" viewBox="0 0 88 78" fill="none" xmlns="http://www.w3.org/2000/svg">
<g filter="url(#filter0_d)">
<g clip-path="url(#clip0)">
<rect x="4" width="80" height="70" rx="20" fill="url(#paint0_linear)" fill-opacity="0.67"/>
<g filter="url(#filter1_i)">
<path d="M57.3262 46.876C56.0729 47.7549 54.7301 48.4059 53.2979 48.8291C51.8818 49.2523 50.5228 49.4639 49.2207 49.4639C47.8698 49.4639 46.5596 49.2116 45.29 48.707C44.0205 48.2025 42.8975 47.4131 41.9209 46.3389C40.9443 45.2646 40.1549 43.8975 39.5527 42.2373C38.9668 40.5771 38.6738 38.5833 38.6738 36.2559C38.6738 34.0911 38.9993 32.2194 39.6504 30.6406C40.3014 29.0456 41.1478 27.7272 42.1895 26.6855C43.2311 25.6439 44.403 24.8708 45.7051 24.3662C47.0234 23.8454 48.3418 23.585 49.6602 23.585C50.5879 23.585 51.4993 23.707 52.3945 23.9512C53.306 24.1953 54.1442 24.5859 54.9092 25.123C55.6742 25.6602 56.3415 26.36 56.9111 27.2227C57.4808 28.0853 57.8958 29.1351 58.1562 30.3721L54.2744 31.0068C54.0954 30.2744 53.8512 29.6641 53.542 29.1758C53.2327 28.6712 52.8747 28.2725 52.4678 27.9795C52.0609 27.6702 51.6214 27.4587 51.1494 27.3447C50.6937 27.2145 50.2217 27.1494 49.7334 27.1494C48.9521 27.1494 48.1709 27.3203 47.3896 27.6621C46.6247 28.0039 45.9248 28.541 45.29 29.2734C44.6715 30.0059 44.167 30.9336 43.7764 32.0566C43.3857 33.1797 43.1904 34.5225 43.1904 36.085C43.1904 37.6312 43.3125 39.0146 43.5566 40.2354C43.8008 41.4398 44.1833 42.4652 44.7041 43.3115C45.2412 44.1416 45.9167 44.7845 46.7305 45.2402C47.5443 45.6797 48.5127 45.8994 49.6357 45.8994C50.3193 45.8994 50.9622 45.8424 51.5645 45.7285C52.1829 45.5983 52.7526 45.4355 53.2734 45.2402C53.7943 45.0286 54.2744 44.7926 54.7139 44.5322C55.1533 44.2718 55.5602 44.0033 55.9346 43.7266L57.3262 46.876Z" fill="#F8F8F8"/>
</g>
<path d="M57.3262 46.876L57.9003 47.6947L58.5728 47.2231L58.2409 46.4718L57.3262 46.876ZM53.2979 48.8291L53.0145 47.8701L53.0115 47.871L53.2979 48.8291ZM39.5527 42.2373L38.6097 42.5701L38.6127 42.5783L39.5527 42.2373ZM39.6504 30.6406L40.5749 31.0219L40.5762 31.0185L39.6504 30.6406ZM42.1895 26.6855L41.4823 25.9784L42.1895 26.6855ZM45.7051 24.3662L46.0664 25.2987L46.0725 25.2963L45.7051 24.3662ZM52.3945 23.9512L52.1314 24.9159L52.1358 24.9171L52.3945 23.9512ZM58.1562 30.3721L58.3176 31.359L59.3504 31.1901L59.1348 30.1661L58.1562 30.3721ZM54.2744 31.0068L53.303 31.2443L53.5227 32.143L54.4358 31.9937L54.2744 31.0068ZM53.542 29.1758L52.6894 29.6983L52.6932 29.7046L52.6972 29.7108L53.542 29.1758ZM52.4678 27.9795L51.8627 28.7757L51.873 28.7835L51.8835 28.791L52.4678 27.9795ZM51.1494 27.3447L50.8747 28.3063L50.8946 28.3119L50.9148 28.3168L51.1494 27.3447ZM47.3896 27.6621L46.9888 26.7459L46.9817 26.7491L47.3896 27.6621ZM45.29 29.2734L44.5343 28.6185L44.526 28.6283L45.29 29.2734ZM43.5566 40.2354L42.5761 40.4315L42.5766 40.434L43.5566 40.2354ZM44.7041 43.3115L43.8524 43.8356L43.8584 43.8453L43.8645 43.8548L44.7041 43.3115ZM46.7305 45.2402L46.2419 46.1127L46.2486 46.1165L46.2553 46.1201L46.7305 45.2402ZM51.5645 45.7285L51.7503 46.7111L51.7604 46.7092L51.7705 46.7071L51.5645 45.7285ZM53.2734 45.2402L53.6246 46.1766L53.6373 46.1718L53.6498 46.1667L53.2734 45.2402ZM55.9346 43.7266L56.8493 43.3224L56.3445 42.1801L55.3402 42.9224L55.9346 43.7266ZM56.752 46.0572C55.5852 46.8755 54.3403 47.4784 53.0145 47.8701L53.5812 49.7881C55.12 49.3335 56.5606 48.6343 57.9003 47.6947L56.752 46.0572ZM53.0115 47.871C51.6761 48.2701 50.4137 48.4639 49.2207 48.4639V50.4639C50.6318 50.4639 52.0876 50.2345 53.5842 49.7872L53.0115 47.871ZM49.2207 48.4639C47.9977 48.4639 46.8127 48.2361 45.6594 47.7777L44.9207 49.6363C46.3064 50.1871 47.7419 50.4639 49.2207 50.4639V48.4639ZM45.6594 47.7777C44.5401 47.3329 43.5416 46.635 42.6608 45.6662L41.181 47.0115C42.2533 48.1912 43.5009 49.0721 44.9207 49.6363L45.6594 47.7777ZM42.6608 45.6662C41.7887 44.7069 41.0599 43.4597 40.4928 41.8963L38.6127 42.5783C39.25 44.3352 40.0999 45.8224 41.181 47.0115L42.6608 45.6662ZM40.4957 41.9045C39.9575 40.3794 39.6738 38.5043 39.6738 36.2559H37.6738C37.6738 38.6623 37.9761 40.7749 38.6097 42.5701L40.4957 41.9045ZM39.6738 36.2559C39.6738 34.1883 39.9851 32.4521 40.5749 31.0219L38.7259 30.2594C38.0136 31.9867 37.6738 33.994 37.6738 36.2559H39.6738ZM40.5762 31.0185C41.1854 29.5261 41.9635 28.3257 42.8966 27.3927L41.4823 25.9784C40.332 27.1288 39.4175 28.5651 38.7245 30.2627L40.5762 31.0185ZM42.8966 27.3927C43.8454 26.4438 44.9011 25.7502 46.0664 25.2987L45.3438 23.4338C43.9049 23.9913 42.6168 24.8439 41.4823 25.9784L42.8966 27.3927ZM46.0725 25.2963C47.2827 24.8181 48.4768 24.585 49.6602 24.585V22.585C48.2068 22.585 46.7641 22.8726 45.3377 23.4362L46.0725 25.2963ZM49.6602 24.585C50.499 24.585 51.322 24.6952 52.1314 24.9159L52.6576 22.9864C51.6767 22.7189 50.6768 22.585 49.6602 22.585V24.585ZM52.1358 24.9171C52.9352 25.1313 53.6663 25.4723 54.3345 25.9415L55.4838 24.3046C54.6221 23.6996 53.6768 23.2594 52.6533 22.9852L52.1358 24.9171ZM54.3345 25.9415C54.9866 26.3993 55.5688 27.0046 56.0767 27.7737L57.7456 26.6716C57.1142 25.7154 56.3617 24.921 55.4838 24.3046L54.3345 25.9415ZM56.0767 27.7737C56.5635 28.5109 56.9376 29.4376 57.1777 30.5781L59.1348 30.1661C58.8541 28.8326 58.3981 27.6597 57.7456 26.6716L56.0767 27.7737ZM57.9949 29.3852L54.113 30.0199L54.4358 31.9937L58.3176 31.359L57.9949 29.3852ZM55.2458 30.7694C55.0484 29.9618 54.7687 29.2438 54.3868 28.6407L52.6972 29.7108C52.9337 30.0844 53.1423 30.587 53.303 31.2443L55.2458 30.7694ZM54.3946 28.6532C54.0283 28.0556 53.5843 27.5512 53.0521 27.168L51.8835 28.791C52.1651 28.9938 52.4372 29.2869 52.6894 29.6983L54.3946 28.6532ZM53.0729 27.1833C52.5618 26.795 51.9974 26.5207 51.3841 26.3726L50.9148 28.3168C51.2455 28.3966 51.5599 28.5455 51.8627 28.7757L53.0729 27.1833ZM51.4241 26.3832C50.8764 26.2267 50.3118 26.1494 49.7334 26.1494V28.1494C50.1316 28.1494 50.511 28.2023 50.8747 28.3063L51.4241 26.3832ZM49.7334 26.1494C48.802 26.1494 47.8848 26.354 46.9888 26.746L47.7905 28.5783C48.457 28.2867 49.1023 28.1494 49.7334 28.1494V26.1494ZM46.9817 26.7491C46.064 27.1591 45.2498 27.7929 44.5343 28.6185L46.0457 29.9284C46.5998 29.2891 47.1854 28.8487 47.7976 28.5751L46.9817 26.7491ZM44.526 28.6283C43.812 29.4738 43.2534 30.5162 42.8319 31.7281L44.7209 32.3852C45.0806 31.351 45.5311 30.5379 46.0541 29.9186L44.526 28.6283ZM42.8319 31.7281C42.395 32.9841 42.1904 34.4437 42.1904 36.085H44.1904C44.1904 34.6012 44.3765 33.3753 44.7209 32.3852L42.8319 31.7281ZM42.1904 36.085C42.1904 37.6819 42.3163 39.1329 42.5761 40.4315L44.5372 40.0392C44.3087 38.8964 44.1904 37.5804 44.1904 36.085H42.1904ZM42.5766 40.434C42.8387 41.7274 43.2574 42.8686 43.8524 43.8356L45.5558 42.7874C45.1092 42.0617 44.7628 41.1522 44.5367 40.0367L42.5766 40.434ZM43.8645 43.8548C44.4846 44.8131 45.2775 45.5727 46.2419 46.1127L47.2191 44.3677C46.5558 43.9963 45.9978 43.4701 45.5437 42.7683L43.8645 43.8548ZM46.2553 46.1201C47.2432 46.6536 48.3821 46.8994 49.6357 46.8994V44.8994C48.6433 44.8994 47.8453 44.7058 47.2056 44.3603L46.2553 46.1201ZM49.6357 46.8994C50.3747 46.8994 51.0803 46.8379 51.7503 46.7111L51.3786 44.7459C50.8442 44.847 50.264 44.8994 49.6357 44.8994V46.8994ZM51.7705 46.7071C52.4318 46.5678 53.0506 46.3918 53.6246 46.1766L52.9223 44.3039C52.4546 44.4793 51.9341 44.6288 51.3584 44.75L51.7705 46.7071ZM53.6498 46.1667C54.2122 45.9382 54.7374 45.6807 55.2237 45.3925L54.2041 43.6719C53.8114 43.9046 53.3764 44.119 52.8971 44.3138L53.6498 46.1667ZM55.2237 45.3925C55.6895 45.1165 56.1249 44.8294 56.529 44.5307L55.3402 42.9224C54.9955 43.1771 54.6172 43.4271 54.2041 43.6719L55.2237 45.3925ZM55.0199 44.1307L56.4115 47.2801L58.2409 46.4718L56.8493 43.3224L55.0199 44.1307Z" fill="black"/>
</g>
<rect x="4.5" y="0.5" width="79" height="69" rx="19.5" stroke="black"/>
</g>
<defs>
<filter id="filter0_d" x="0" y="0" width="88" height="78" filterUnits="userSpaceOnUse" color-interpolation-filters="sRGB">
<feFlood flood-opacity="0" result="BackgroundImageFix"/>
<feColorMatrix in="SourceAlpha" type="matrix" values="0 0 0 0 0 0 0 0 0 0 0 0 0 0 0 0 0 0 127 0"/>
<feOffset dy="4"/>
<feGaussianBlur stdDeviation="2"/>
<feColorMatrix type="matrix" values="0 0 0 0 0 0 0 0 0 0 0 0 0 0 0 0 0 0 0.25 0"/>
<feBlend mode="normal" in2="BackgroundImageFix" result="effect1_dropShadow"/>
<feBlend mode="normal" in="SourceGraphic" in2="effect1_dropShadow" result="shape"/>
</filter>
<filter id="filter1_i" x="37.6738" y="22.585" width="21.6766" height="31.8789" filterUnits="userSpaceOnUse" color-interpolation-filters="sRGB">
<feFlood flood-opacity="0" result="BackgroundImageFix"/>
<feBlend mode="normal" in="SourceGraphic" in2="BackgroundImageFix" result="shape"/>
<feColorMatrix in="SourceAlpha" type="matrix" values="0 0 0 0 0 0 0 0 0 0 0 0 0 0 0 0 0 0 127 0" result="hardAlpha"/>
<feOffset dy="4"/>
<feGaussianBlur stdDeviation="2"/>
<feComposite in2="hardAlpha" operator="arithmetic" k2="-1" k3="1"/>
<feColorMatrix type="matrix" values="0 0 0 0 0 0 0 0 0 0 0 0 0 0 0 0 0 0 0.25 0"/>
<feBlend mode="normal" in2="shape" result="effect1_innerShadow"/>
</filter>
<linearGradient id="paint0_linear" x1="44" y1="0" x2="44" y2="70" gradientUnits="userSpaceOnUse">
<stop stop-color="#24FF00"/>
<stop offset="1" stop-color="#338A24" stop-opacity="0"/>
</linearGradient>
<clipPath id="clip0">
<rect x="4" width="80" height="70" rx="20" fill="white"/>
</clipPath>
</defs>
</svg>
